<svg width="343" height="78" viewBox="0 0 343 78" fill="none" xmlns="http://www.w3.org/2000/svg">
<mask id="mask0_2051_1444" style="mask-type:alpha" maskUnits="userSpaceOnUse" x="0" y="0" width="343" height="78">
<path opacity="0.15" d="M343 78H-7.62939e-06V58.3452C4.67883 49.9989 11.0057 45.0825 24.2421 40.7751C53.5133 31.2496 67.6134 64.7426 101.095 63.11C141.69 61.1305 135.797 16.927 175.884 21.1203C201.71 23.8218 199.724 46.0568 225.916 47.0288C256.232 48.1539 261.576 17.543 291.937 16.9511C320.139 16.4014 330.681 26.1174 343 40.7751V78Z" fill="#D1D1D1"/>
<path opacity="0.1" d="M343 78H-7.62939e-06C-7.62939e-06 78 24.8618 32.192 58.0224 28.5041C89.205 25.0361 97.5714 61.3531 128.882 58.6845C159.179 56.1023 159.362 25.3485 188.958 19.6511C224.554 12.7988 242.52 48.4132 278.302 42.1859C310.16 36.6415 311.553 -6.09648 343 0.738062V78Z" fill="#D1D1D1"/>
</mask>
<g mask="url(#mask0_2051_1444)">
<path d="M-7.62939e-06 -1.20679H343V60.7932C343 69.6298 335.837 76.7932 327 76.7932H16C7.16344 76.7932 -7.62939e-06 69.6298 -7.62939e-06 60.7932V-1.20679Z" fill="#D1D1D1"/>
</g>
</svg>
